<svg xmlns="http://www.w3.org/2000/svg" width="1024" height="1024" viewBox="0 0 1024 1024">
    <defs>
        <linearGradient id="a" x1="67.169%" x2="38.431%" y1="71.269%" y2="11.482%">
            <stop offset="0%" stop-color="#F27038"/>
            <stop offset="100%" stop-color="#C45B26"/>
        </linearGradient>
        <linearGradient id="b" x1="5.618%" x2="115.368%" y1="77.576%" y2="0%">
            <stop offset="0%" stop-color="#F27038"/>
            <stop offset="100%" stop-color="#F4B544"/>
        </linearGradient>
        <linearGradient id="c" x1="43.057%" x2="56.779%" y1="0%" y2="100%">
            <stop offset="0%" stop-color="#1AB381"/>
            <stop offset="100%" stop-color="#008D5F"/>
        </linearGradient>
    </defs>
    <g fill="none" fill-rule="evenodd">
        <path fill="url(#a)" d="M868.24 762.323c-132.106 218.523-416.647 289.7-635.543 158.982C13.805 790.58-56.55 507.46 75.554 288.937 207.659 70.414 297.007 314.738 515.9 445.46c218.894 130.722 484.443 98.34 352.338 316.863z" transform="rotate(-10 496 329.12)"/>
        <path fill="url(#b)" d="M176.584 894.445c-205.098-159.35 64.94-224.415 225.147-428.334C561.94 262.191 551.65-3.363 756.747 155.99 961.844 315.34 998.235 609.829 838.03 813.75c-160.21 203.917-456.349 240.046-661.446 80.694z" transform="rotate(-10 496 329.12)"/>
        <path fill="url(#c)" d="M372.527 0a183.529 183.529 0 0 1 14.874 8.698c80.664 52.383 105.288 157.624 55 235.06a161.99 161.99 0 0 1-14.356 18.921 183.53 183.53 0 0 1-14.874-8.697C332.508 201.598 307.884 96.358 358.172 18.92A161.99 161.99 0 0 1 372.527 0z" transform="rotate(-10 496 329.12)"/>
    </g>
</svg>
